<?xml version="1.0" encoding="UTF-8"?>
<svg xmlns="http://www.w3.org/2000/svg" xmlns:xlink="http://www.w3.org/1999/xlink" width="960px" height="960px" viewBox="0 0 960 960" version="1.1">
<g id="surface1">
<path style=" stroke:none;fill-rule:nonzero;fill:rgb(18.039216%,20.392157%,20.392157%);fill-opacity:1;" d="M 480 60.234375 C 603.046875 60.234375 725.859375 107.109375 819.375 200.625 C 1006.40625 387.65625 1006.40625 692.34375 819.375 879.375 C 795.9375 902.8125 757.96875 902.8125 734.53125 879.375 C 711.09375 855.9375 711.09375 817.96875 734.53125 794.53125 C 757.265625 771.796875 776.484375 746.71875 791.953125 720 C 871.875 582.1875 852.890625 403.828125 734.53125 285.46875 C 593.4375 144.375 366.5625 144.375 225.46875 285.46875 C 84.375 426.5625 84.375 653.4375 225.46875 794.53125 C 248.90625 817.96875 248.90625 855.9375 225.46875 879.375 C 202.03125 902.8125 164.0625 902.8125 140.625 879.375 C -46.40625 692.34375 -46.40625 387.65625 140.625 200.625 C 234.140625 107.109375 356.953125 60.234375 480 60.234375 Z M 791.953125 720 L 709.921875 741.796875 L 539.765625 643.828125 C 502.734375 665.15625 457.03125 665.15625 420 643.828125 C 362.578125 610.78125 342.890625 537.421875 376.171875 480 C 409.21875 422.578125 482.578125 402.890625 540 435.9375 C 577.03125 457.5 599.765625 497.109375 599.765625 539.765625 L 769.921875 637.96875 Z M 791.953125 720 "/>
<path style=" stroke:none;fill-rule:nonzero;fill:rgb(18.039216%,20.392157%,21.176471%);fill-opacity:0.34902;" d="M 240 540 C 240.234375 603.515625 265.78125 664.453125 310.78125 709.21875 L 183.046875 836.953125 C 104.296875 758.203125 60 651.328125 60 540 Z M 240 540 "/>
</g>
</svg>
