<?xml version="1.0" encoding="UTF-8"?>
<svg xmlns="http://www.w3.org/2000/svg" xmlns:xlink="http://www.w3.org/1999/xlink" width="905px" height="905px" viewBox="0 0 905 905" version="1.1">
<g id="surface1">
<path style=" stroke:none;fill-rule:nonzero;fill:rgb(0%,0%,0%);fill-opacity:1;" d="M 432.535156 163.597656 C 396.894531 167.5 361.226562 180.449219 331.242188 200.390625 C 325.101562 204.472656 312.167969 215.695312 302.257812 225.535156 C 270.4375 257.128906 253.328125 288.359375 243.710938 332.425781 C 239.136719 353.378906 239.175781 390.835938 243.796875 412.574219 C 253.207031 456.859375 266.707031 481.1875 308.773438 529.691406 C 347.628906 574.496094 360.945312 598.734375 367.402344 636.457031 C 370.140625 652.425781 371.890625 656.925781 377.378906 662.089844 C 385.476562 669.703125 387.140625 669.878906 452.792969 669.878906 C 508.84375 669.878906 514.355469 669.652344 519.785156 667.164062 C 527.175781 663.765625 533.238281 656.863281 535.316406 649.46875 C 537.804688 640.589844 537.378906 639.789062 528.363281 636.488281 L 519.785156 633.351562 L 518.304688 640.890625 C 517.171875 646.660156 515.953125 648.875 513.128906 650.289062 C 507.804688 652.957031 397.195312 652.957031 391.871094 650.289062 C 388.761719 648.730469 387.855469 646.660156 386.175781 637.34375 C 377.523438 589.28125 362.746094 562.816406 313.542969 507.214844 C 274.339844 462.910156 258.261719 423.21875 258.429688 371.167969 C 258.835938 247.398438 378.285156 156.496094 500.265625 187.136719 C 555.566406 201.035156 601.578125 237.8125 627.0625 288.507812 C 653.667969 341.441406 653.253906 405.917969 625.941406 458.859375 L 619.15625 472.019531 L 625.21875 478.019531 C 632.832031 485.546875 633.347656 485.183594 643.238281 465.21875 C 651.925781 447.671875 658.140625 429.132812 661.878906 409.617188 C 665.78125 389.207031 665.476562 351.914062 661.246094 332.425781 C 651.710938 288.507812 634.382812 256.8125 602.742188 225.429688 C 570.640625 193.585938 537.824219 175.972656 494.054688 167.082031 C 478.96875 164.019531 445.84375 162.144531 432.535156 163.597656 "/>
<path style=" stroke:none;fill-rule:nonzero;fill:rgb(0%,0%,0%);fill-opacity:1;" d="M 504.996094 246.746094 C 502.550781 248.242188 488.289062 262.035156 473.277344 277.417969 C 458.207031 292.851562 432.390625 319.261719 415.601562 336.417969 C 354.964844 398.375 357.859375 395.089844 357.859375 402.070312 C 357.859375 405.625 358.980469 410.328125 360.394531 412.722656 C 364.855469 420.273438 369.691406 421.445312 396.308594 421.445312 C 416.714844 421.445312 420.140625 421.765625 419.449219 423.589844 C 419.003906 424.765625 408.582031 442.441406 396.308594 462.851562 C 384.03125 483.257812 373.625 502.164062 373.183594 504.847656 C 371.023438 518.15625 386.898438 529.191406 399.113281 522.878906 C 401.304688 521.753906 411.71875 511.871094 422.109375 501.078125 C 432.542969 490.242188 464.195312 457.75 492.277344 429.058594 C 520.355469 400.375 544.277344 375.320312 545.285156 373.535156 C 549.5625 365.992188 546.757812 354.9375 539.453125 350.484375 C 535.148438 347.859375 531.984375 347.507812 512.757812 347.507812 C 497.972656 347.507812 490.949219 346.984375 490.949219 345.878906 C 490.949219 344.984375 495.160156 336.199219 500.339844 326.285156 C 505.515625 316.378906 514.464844 299.296875 520.285156 288.207031 C 532.011719 265.882812 533.363281 259.464844 527.847656 252.421875 C 521.476562 244.289062 512.585938 242.082031 504.996094 246.746094 Z M 485.773438 315.050781 L 460.042969 364.515625 L 494.125 364.882812 L 528.210938 365.253906 L 523.484375 370.722656 C 516.589844 378.710938 393.351562 504.324219 393.351562 503.367188 C 393.351562 503.125 406.625 480.890625 422.925781 453.828125 C 439.226562 426.773438 452.5 404.503906 452.5 404.222656 C 452.5 403.933594 435.496094 403.699219 414.640625 403.699219 C 392.164062 403.699219 376.996094 403.15625 377.304688 402.371094 C 377.589844 401.640625 401.464844 376.863281 430.394531 347.289062 C 459.316406 317.714844 489.179688 287.046875 496.789062 279.117188 C 504.445312 271.132812 510.8125 264.894531 511.0625 265.140625 C 511.304688 265.386719 499.925781 287.839844 485.773438 315.050781 "/>
<path style=" stroke:none;fill-rule:nonzero;fill:rgb(0%,0%,0%);fill-opacity:1;" d="M 544.628906 472.441406 C 517.269531 478.425781 493.160156 502.039062 486.464844 529.394531 C 482.011719 547.585938 485.398438 570.316406 495.058594 587.066406 C 503.65625 601.980469 524.070312 617.203125 541.816406 621.925781 C 552.023438 624.648438 571.394531 624.507812 581.152344 621.648438 C 607.769531 613.839844 629.9375 591.398438 635.761719 566.363281 C 638.371094 555.125 637.765625 535.28125 634.484375 524.664062 C 626.484375 498.792969 603.628906 478.039062 576.867188 472.34375 C 564.886719 469.792969 556.601562 469.816406 544.628906 472.441406 Z M 579.085938 491.625 C 595.996094 496.648438 610.992188 511.800781 616.761719 529.691406 C 626.859375 561.007812 609.542969 593.90625 577.898438 603.523438 C 550.097656 611.96875 520.714844 598.800781 508.191406 572.28125 C 502.308594 559.824219 501.035156 542.855469 505.03125 530.136719 C 510.183594 513.71875 524.25 498.769531 540.484375 492.445312 C 549.5625 488.910156 568.582031 488.503906 579.085938 491.625 "/>
<path style=" stroke:none;fill-rule:nonzero;fill:rgb(0%,0%,0%);fill-opacity:1;" d="M 391.871094 690.578125 C 388.261719 694.191406 388.058594 697.679688 391.195312 702.117188 L 393.5 705.367188 L 511.5 705.367188 L 513.804688 702.117188 C 516.941406 697.679688 516.652344 694.214844 512.835938 690.65625 C 509.675781 687.710938 507.953125 687.621094 452.207031 687.621094 C 396.753906 687.621094 394.730469 687.722656 391.871094 690.578125 "/>
<path style=" stroke:none;fill-rule:nonzero;fill:rgb(0%,0%,0%);fill-opacity:1;" d="M 416.496094 727.253906 C 413.109375 730.953125 413.3125 735.683594 417.011719 739.378906 C 419.792969 742.164062 421.890625 742.335938 452.5 742.335938 C 483.109375 742.335938 485.207031 742.164062 487.988281 739.378906 C 491.6875 735.683594 491.820312 730.21875 488.285156 727.085938 C 485.851562 724.925781 481.042969 724.589844 452.207031 724.589844 C 421.890625 724.589844 418.714844 724.828125 416.496094 727.253906 "/>
<path style=" stroke:none;fill-rule:nonzero;fill:rgb(0%,0%,0%);fill-opacity:1;" d="M 531.757812 519.339844 C 527.941406 524.761719 529.019531 527.765625 538.222656 537.378906 C 543.179688 542.554688 547.140625 547.125 547.140625 547.660156 C 547.140625 548.1875 543.148438 552.609375 538.269531 557.492188 C 529.101562 566.660156 527.53125 570.753906 531.289062 575.683594 C 532.273438 576.96875 534.941406 578.484375 537.160156 579.007812 C 540.746094 579.851562 542.410156 578.828125 551.28125 570.28125 L 561.339844 560.597656 L 570.136719 569.246094 C 575.015625 574.046875 580.3125 578.304688 582.042969 578.8125 C 585.96875 579.972656 592.980469 574.648438 592.980469 570.507812 C 592.980469 568.894531 588.9375 563.332031 584.109375 558.304688 C 579.28125 553.273438 575.238281 548.519531 575.238281 547.878906 C 575.238281 547.222656 579.183594 542.554688 584.109375 537.378906 C 593.546875 527.472656 594.742188 523.761719 590.023438 519.042969 C 585 514.019531 580.5625 515.375 570.507812 525.027344 C 565.476562 529.859375 560.933594 533.832031 560.449219 533.832031 C 559.964844 533.832031 555.621094 529.839844 550.808594 524.960938 C 541.027344 515.050781 535.851562 513.523438 531.757812 519.339844 "/>
</g>
</svg>
